<svg width="64" height="108" viewBox="0 0 64 108" fill="none" xmlns="http://www.w3.org/2000/svg">
<path d="M56.463 26.3017C58.3122 47.6705 47.2169 53.7831 38.2277 53.7831C38.2277 53.7831 35.9161 54.3583 35.9161 61.5497V70.4775L22.9291 59.1209C24.8721 52.3203 25.5254 37.15 20.0002 38C10.7499 39.4231 11.0002 32 11.0002 31C11.0002 25.5 17.6808 25.7881 17.6808 25.7881C17.6808 25.7881 16.6535 4.72754 37.4571 4.72754C45.1622 4.72757 55.0627 10.1211 56.463 26.3017Z" fill="#171720" stroke="white" stroke-width="3" stroke-linecap="round" stroke-linejoin="round"/>
<path fill-rule="evenodd" clip-rule="evenodd" d="M34.8885 32.2639C35.5189 32.2639 36.112 32.1041 36.6295 31.8228C36.2525 31.4648 35.9999 30.8069 35.9999 30.0547C35.9999 28.9199 36.5748 28 37.2841 28C37.8244 28 38.2868 28.5339 38.4764 29.29C38.5174 29.0708 38.5389 28.8447 38.5389 28.6135C38.5389 26.5975 36.9046 24.9631 34.8885 24.9631C32.8725 24.9631 31.2382 26.5975 31.2382 28.6135C31.2382 30.6296 32.8725 32.2639 34.8885 32.2639ZM40.4978 29.2987C40.1596 32.0962 37.7772 34.2639 34.8885 34.2639C31.9521 34.2639 29.5389 32.024 29.2642 29.1595L29.2023 29.2049C28.4812 28.2215 24.7071 24.8301 17.0622 26.0063L16.7581 24.0295C23.2945 23.0239 27.4782 25.051 29.5548 26.744C30.3265 24.5421 32.4231 22.9631 34.8885 22.9631C37.4406 22.9631 39.5974 24.655 40.2987 26.9783C40.8305 26.6783 41.458 26.4294 42.1505 26.3167C43.1802 26.1491 44.3106 26.2917 45.4129 26.9432C46.1252 24.638 48.2732 22.9632 50.8124 22.9632C53.933 22.9632 56.4627 25.4929 56.4627 28.6135C56.4627 31.7342 53.933 34.2639 50.8124 34.2639C47.9236 34.2639 45.5411 32.0961 45.2031 29.2985C44.2088 28.316 43.2572 28.1629 42.4718 28.2907C41.6341 28.4271 40.9032 28.9024 40.4978 29.2987ZM53.3223 31.2641C54.0247 30.5988 54.4627 29.6573 54.4627 28.6135C54.4627 26.5975 52.8284 24.9632 50.8124 24.9632C48.7963 24.9632 47.162 26.5975 47.162 28.6135C47.162 30.6296 48.7963 32.2639 50.8124 32.2639C51.2321 32.2639 51.6353 32.1931 52.0106 32.0627C51.4328 31.8622 50.9999 31.0393 50.9999 30.0547C50.9999 28.9199 51.5748 28 52.2841 28C52.9933 28 53.5682 28.9199 53.5682 30.0547C53.5682 30.5068 53.477 30.9248 53.3223 31.2641ZM43.6209 33.7777C43.0686 33.7777 42.6209 34.2254 42.6209 34.7777C42.6209 35.33 43.0686 35.7777 43.6209 35.7777C44.1689 35.7777 44.5443 35.8542 44.7509 35.9658C44.838 36.0128 44.8704 36.0529 44.8855 36.0776C44.8996 36.1008 44.9324 36.1657 44.9324 36.3187C44.9324 36.4337 44.9141 36.4833 44.9079 36.4961C44.9013 36.5019 44.8831 36.5148 44.8428 36.5316C44.6487 36.6121 44.278 36.6473 43.6921 36.6054C43.1412 36.5661 42.6628 36.9808 42.6234 37.5316C42.5841 38.0825 42.9987 38.561 43.5496 38.6003C44.1623 38.6441 44.9474 38.6536 45.6094 38.3788C45.9656 38.231 46.3172 37.9887 46.5722 37.6056C46.8268 37.2232 46.9324 36.7797 46.9324 36.3187C46.9324 35.8553 46.8261 35.4193 46.5941 35.038C46.363 34.6582 46.0422 34.3901 45.7012 34.206C45.0518 33.8553 44.2714 33.7777 43.6209 33.7777ZM44.9111 36.4928C44.9112 36.4929 44.9105 36.4938 44.9086 36.4955C44.91 36.4936 44.911 36.4928 44.9111 36.4928ZM38.2504 44.3867C38.6173 43.9739 39.2494 43.9367 39.6622 44.3036C41.1446 45.6214 43.1071 45.5044 44.2648 44.5397C44.6891 44.1861 45.3197 44.2434 45.6732 44.6677C46.0268 45.092 45.9695 45.7225 45.5452 46.0761C43.6209 47.6797 40.5494 47.7682 38.3334 45.7985C37.9206 45.4315 37.8835 44.7995 38.2504 44.3867ZM17.9814 30.4924C18.2533 30.4446 18.435 30.1853 18.3872 29.9134C18.3393 29.6414 18.0801 29.4597 17.8081 29.5076C17.3459 29.5889 16.6816 29.8897 16.1815 30.5236C15.7797 31.033 15.5 31.7374 15.5 32.6667C15.5 32.9428 15.7239 33.1667 16 33.1667C16.2761 33.1667 16.5 32.9428 16.5 32.6667C16.5 32.3395 16.544 32.061 16.6162 31.824C17.0759 32.4061 17.8083 33.0782 18.8208 33.4668C19.0786 33.5657 19.3678 33.437 19.4668 33.1792C19.5657 32.9214 19.437 32.6322 19.1792 32.5332C18.1678 32.145 17.5014 31.3941 17.1874 30.9075C17.475 30.6489 17.7884 30.5264 17.9814 30.4924Z" fill="white"/>
<mask id="path-3-inside-1" fill="white">
<path fill-rule="evenodd" clip-rule="evenodd" d="M16.1319 16.2444C15.7956 16.2714 15.4555 16.2851 15.1123 16.2851C8.16182 16.2851 2.52734 10.6507 2.52734 3.70018C2.52734 -3.25029 8.16182 -8.88477 15.1123 -8.88477C21.7782 -8.88477 27.2337 -3.7022 27.6692 2.85344C30.1093 1.46528 32.5479 0.613345 34.6315 0.361489C52.3018 -1.28226 59.6301 12.8608 61.0856 20.1378C51.634 25.891 36.8574 17.8264 32.8337 13.4602C25.1701 24.5052 21.6606 24.6697 16.9232 24.8918C16.2627 24.9228 15.5784 24.9549 14.8555 25.0178C14.6849 21.8337 15.1773 18.8972 16.1319 16.2444Z"/>
</mask>
<path fill-rule="evenodd" clip-rule="evenodd" d="M16.1319 16.2444C15.7956 16.2714 15.4555 16.2851 15.1123 16.2851C8.16182 16.2851 2.52734 10.6507 2.52734 3.70018C2.52734 -3.25029 8.16182 -8.88477 15.1123 -8.88477C21.7782 -8.88477 27.2337 -3.7022 27.6692 2.85344C30.1093 1.46528 32.5479 0.613345 34.6315 0.361489C52.3018 -1.28226 59.6301 12.8608 61.0856 20.1378C51.634 25.891 36.8574 17.8264 32.8337 13.4602C25.1701 24.5052 21.6606 24.6697 16.9232 24.8918C16.2627 24.9228 15.5784 24.9549 14.8555 25.0178C14.6849 21.8337 15.1773 18.8972 16.1319 16.2444Z" fill="white"/>
<path d="M16.1319 16.2444L17.0728 16.583L17.598 15.1237L16.052 15.2476L16.1319 16.2444ZM27.6692 2.85344L26.6714 2.91973L26.7771 4.51143L28.1637 3.72263L27.6692 2.85344ZM34.6315 0.361489L34.5388 -0.634212L34.5251 -0.632936L34.5114 -0.631284L34.6315 0.361489ZM61.0856 20.1378L61.6055 20.992L62.2034 20.6281L62.0661 19.9417L61.0856 20.1378ZM32.8337 13.4602L33.569 12.7825L32.7234 11.8649L32.0121 12.8901L32.8337 13.4602ZM16.9232 24.8918L16.8764 23.8929H16.8764L16.9232 24.8918ZM14.8555 25.0178L13.857 25.0713L13.9123 26.1036L14.9421 26.014L14.8555 25.0178ZM16.052 15.2476C15.7422 15.2725 15.4288 15.2851 15.1123 15.2851V17.2851C15.4822 17.2851 15.8489 17.2703 16.2118 17.2412L16.052 15.2476ZM15.1123 15.2851C8.7141 15.2851 3.52734 10.0984 3.52734 3.70018H1.52734C1.52734 11.2029 7.60953 17.2851 15.1123 17.2851V15.2851ZM3.52734 3.70018C3.52734 -2.69801 8.7141 -7.88477 15.1123 -7.88477V-9.88477C7.60953 -9.88477 1.52734 -3.80258 1.52734 3.70018H3.52734ZM15.1123 -7.88477C21.2481 -7.88477 26.2706 -3.11404 26.6714 2.91973L28.667 2.78715C28.1968 -4.29036 22.3083 -9.88477 15.1123 -9.88477V-7.88477ZM28.1637 3.72263C30.5171 2.38378 32.829 1.58665 34.7515 1.35426L34.5114 -0.631284C32.2669 -0.359962 29.7015 0.546785 27.1747 1.98425L28.1637 3.72263ZM34.7241 1.35719C43.2416 0.564862 49.2031 3.56626 53.2306 7.61005C57.2913 11.6872 59.4088 16.8533 60.105 20.334L62.0661 19.9417C61.3069 16.1454 59.0325 10.6014 54.6476 6.1987C50.2295 1.76264 43.6916 -1.48563 34.5388 -0.634212L34.7241 1.35719ZM60.5656 19.2836C56.2191 21.9293 50.5233 21.455 45.2483 19.6477C39.985 17.8444 35.4416 14.8144 33.569 12.7825L32.0983 14.1378C34.2495 16.4721 39.1063 19.6575 44.6001 21.5398C50.0822 23.418 56.5004 24.0995 61.6055 20.992L60.5656 19.2836ZM32.0121 12.8901C28.2044 18.3779 25.5097 21.0377 23.2684 22.376C21.0755 23.6855 19.242 23.782 16.8764 23.8929L16.9701 25.8908C19.3418 25.7795 21.6318 25.6828 24.2938 24.0932C26.9075 22.5324 29.7994 19.5874 33.6553 14.0302L32.0121 12.8901ZM16.8764 23.8929C16.2182 23.9238 15.5145 23.9567 14.7689 24.0215L14.9421 26.014C15.6422 25.9531 16.3073 25.9218 16.9701 25.8908L16.8764 23.8929ZM15.8541 24.9643C15.6909 21.9188 16.1615 19.1153 17.0728 16.583L15.191 15.9058C14.193 18.679 13.6789 21.7486 13.857 25.0713L15.8541 24.9643Z" fill="white" mask="url(#path-3-inside-1)"/>
<circle cx="54.5575" cy="92.152" r="8.74358" fill="white"/>
<path d="M58.1304 94.1649C57.7964 92.5463 49.8339 95.5348 46.2226 96.3965C46.7052 94.924 48.4114 93.561 48.8251 91.6857C49.3423 89.3416 47.851 86.9649 47.1946 88.6347C45.9848 91.7125 42.5406 96.9265 40.4705 97.9812L43.8708 106.725C48.1052 105.649 55.9061 105.084 55.5289 103.81C55.1517 102.537 54.3274 103.105 50.6967 103.527C54.1342 102.862 58.3775 101.75 57.4719 100.41C56.5663 99.0702 52.5619 101.132 49.6187 101.421C52.6969 100.054 58.8807 99.4384 57.9577 97.4954C57.2498 96.0052 51.812 98.1914 48.3745 98.8559C51.2055 97.6775 58.4644 95.7834 58.1304 94.1649Z" fill="#171720" stroke="white" stroke-linecap="round" stroke-linejoin="round"/>
<path fill-rule="evenodd" clip-rule="evenodd" d="M1.51995 78.5787C4.00289 69.1159 11.0572 60.4458 23.1324 58.1335L23.6966 61.08C12.9413 63.1395 6.66238 70.8007 4.42172 79.3401C2.15781 87.9681 4.08604 97.1865 9.39064 102.238C14.1371 106.759 20.1653 108.387 26.1761 108.504C31.58 108.609 36.8795 107.487 41.0032 106.225L38.8451 98.6713C37.1189 98.8892 34.7621 99.106 32.2508 98.9654C29.0478 98.7861 25.4224 98.0179 22.5002 95.77C18.1853 92.4508 15.4756 86.0925 17.1099 80.0996C17.3279 79.3003 18.1525 78.8291 18.9517 79.047C19.7509 79.265 20.2222 80.0896 20.0042 80.8888C18.7242 85.5825 20.8718 90.7325 24.3293 93.3921C26.5727 95.1178 29.5051 95.807 32.4185 95.9701C35.3165 96.1323 38.0269 95.7666 39.7184 95.5249L41.0134 95.3399L41.3728 96.5978L44.2872 106.799L44.6993 108.241L43.2878 108.644C38.8265 110.129 32.589 111.629 26.1179 111.503C19.6205 111.377 12.7761 109.606 7.32167 104.411C1.01807 98.4075 -0.939755 87.9528 1.51995 78.5787ZM35.8723 62.0682C41.6827 62.7386 45.8107 65.8466 48.5821 69.9755C51.3769 74.1391 52.7727 79.327 53.0048 83.9692L56.0011 83.8194C55.7474 78.7465 54.2287 73.0049 51.073 68.3035C47.8939 63.5673 43.0355 59.8748 36.2162 59.0879L35.8723 62.0682Z" fill="white"/>
</svg>
