<svg width="80" height="100" viewBox="0 0 80 100" fill="none" xmlns="http://www.w3.org/2000/svg">
<path d="M36.2546 58.5634C51.7148 57.9728 52.6055 40.5159 50.5833 28.6373L38.8414 14.2649L17.1189 23.7152L16.6848 34.5438C14.6852 33.9531 12.9666 34.9375 12.9666 38.8752C12.9666 43.813 14.7278 43.6003 17.1188 43.6003C18.0547 49.5068 23.1159 59.0654 36.2546 58.5634Z" stroke="white" stroke-width="2"/>
<path d="M42.019 35.4389C43.3233 34.105 46.528 32.1112 48.9129 34.8071" stroke="white" stroke-width="2" stroke-linecap="round"/>
<path d="M27.739 35.5842C29.4461 34.6591 33.6086 33.4333 36.6025 35.9311" stroke="white" stroke-width="2" stroke-linecap="round"/>
<ellipse cx="45.2198" cy="39.1319" rx="1.23104" ry="2.21588" fill="white"/>
<ellipse cx="32.6633" cy="39.8705" rx="1.47725" ry="1.96967" fill="white"/>
<path d="M39.5571 52.3463C37.7636 53.0154 33.9844 52.7478 31.6785 50.7039" stroke="white" stroke-width="2" stroke-linecap="round"/>
<path d="M40 45.9998H39V46.9998H40V45.9998ZM41.5 46.9998C42.0523 46.9998 42.5 46.552 42.5 45.9998C42.5 45.4475 42.0523 44.9998 41.5 44.9998V46.9998ZM39 41.9998V45.9998H41V41.9998H39ZM40 46.9998H41.5V44.9998H40V46.9998Z" fill="white"/>
<path d="M21.0498 81.8244C20.3764 83.2145 19.237 83.7534 17.152 82.7109C16.2129 82.2414 18.036 81.9679 21.0498 81.8244Z" fill="white"/>
<path d="M78.1969 97.7296L58.1623 69.6812C53.6131 63.3123 44.9137 63.2354 37.1018 63.7164C36.4664 63.7556 35.8031 63.769 35.1105 63.7529C31.663 63.6727 28.8329 63.1275 26.6002 62.4095C22.435 61.0701 17.7527 58.8678 14.0451 61.1908C9.67465 63.9291 5.34138 69.836 1.62607 81.9723C-4.17575 100.924 32.0201 98.2123 41.1806 97.2353C42.3113 97.1147 43.0819 96.0584 42.8801 94.9393L40.8195 83.5125C40.6564 82.6077 39.9061 81.9315 38.9876 81.8927C32.1561 81.6042 14.6209 81.4454 17.152 82.7109C21.83 85.0499 21.7479 79.4281 22.3224 74.0936" stroke="white" stroke-width="2" stroke-linecap="round"/>
<path d="M62.5494 90.7732L62.5093 90.8479L62.4962 90.9317C62.2994 92.1855 61.6694 93.7425 60.7034 94.8939C59.7416 96.0404 58.514 96.717 57.0826 96.4356L56.989 96.4172L56.8951 96.4346C54.9929 96.7866 53.6086 96.3107 51.6475 95.2607C49.3317 94.0207 47.7705 91.9232 47.1458 89.5688C46.5751 87.4181 46.7868 85.056 47.9198 82.9399C48.2207 82.3779 48.4266 81.5656 48.6193 80.7881C48.6308 80.7418 48.6423 80.6955 48.6537 80.6492C48.8426 79.8855 49.0297 79.1294 49.2843 78.4996C49.5615 77.8139 49.8673 77.4141 50.2059 77.2683C50.5051 77.1394 51.0079 77.1411 51.882 77.7421L52.4139 78.1077L52.635 77.5014C52.9035 76.7651 53.3076 76.3137 53.7726 76.0677C54.2418 75.8195 54.8296 75.7507 55.5146 75.8869C56.8999 76.1624 58.5822 77.2624 60.091 79.0897L60.1537 79.1657L60.2406 79.2122C60.8292 79.5273 61.316 79.5873 61.7278 79.5872C61.832 79.5872 61.9661 79.5818 62.0759 79.5774C62.1386 79.5748 62.1933 79.5726 62.2301 79.5719C62.3689 79.5693 62.4666 79.576 62.5516 79.5971C62.6905 79.6317 62.89 79.727 63.1811 80.1513C63.4808 80.5881 63.8419 81.3226 64.3068 82.5564L64.3731 82.7322L64.5387 82.8209C65.4085 83.2866 65.8871 83.6932 66.0346 84.286C66.19 84.9103 66.021 85.9043 65.0857 87.6512C64.6017 88.5551 64.1747 88.9817 63.7825 89.3385C63.738 89.379 63.6929 89.4194 63.6475 89.4601C63.2802 89.7891 62.8883 90.1403 62.5494 90.7732Z" stroke="white"/>
<path d="M61.8942 81.4047C61.7554 79.9692 60.0315 81.3527 59.1869 82.2238L59.8012 84.2543C60.2108 85.608 60.4468 85.1672 62.0052 85.4344C63.5636 85.7017 62.0677 83.1992 61.8942 81.4047Z" stroke="white"/>
<path d="M57.8738 92.7791C59.0737 91.979 57.0403 91.1125 55.8736 90.7793L54.3737 92.2794C53.3738 93.2795 53.8738 93.2795 54.3739 94.7794C54.8741 96.2794 56.3739 93.7792 57.8738 92.7791Z" stroke="white"/>
<path d="M53.8974 79.3918C53.0033 79.3668 52.7173 81.5957 52.6861 82.7133C53.1269 82.9493 54.3201 83.4748 55.5668 83.6886C57.1252 83.9559 56.4796 83.043 56.3061 81.2486C56.1326 79.4543 55.015 79.423 53.8974 79.3918L53.8974 79.3918Z" stroke="white"/>
<path d="M58.5897 87.576C58.1232 85.0576 56.9052 86.485 56.3545 87.5135C56.5014 87.5922 56.8362 87.8849 57 88.4263C57.2048 89.1032 56.0872 89.0719 55.6152 89.9535C55.1432 90.835 56.2608 90.8663 57.5831 91.5743C58.9055 92.2824 59.1728 90.724 58.5897 87.576Z" fill="#C4C4C4" stroke="white"/>
<path d="M50.4446 77.3669C48.6644 76.609 46.2319 82.2459 41.4689 83.9826L40.709 84.1521L42.6787 95.4776C47.4094 96.5611 59.907 94.8645 60.5775 93.1559C61.6067 90.5334 55.1893 92.6024 53.4665 92.8756C57.7642 91.6294 61.0377 91.4891 60.9297 89.7271C60.8217 87.965 58.0907 88.8731 53.0344 89.3169C57.643 88.5528 61.2866 88.6328 60.947 86.5845C60.6075 84.5362 56.3858 85.4804 51.6798 86.8581C55.6361 85.4919 58.8977 84.6067 58.3999 83.0321C57.9021 81.4574 52.9994 83.257 48.993 83.3687C49.377 79.6302 51.9842 78.0224 50.4446 77.3669Z" fill="white"/>
<path d="M59.0107 15.0052C60.6107 25.4052 57.0178 29.5 50 29.5C44 29.5 43.4359 20.1682 41 22C37.0107 25 28.0107 22.5051 23.5107 23.0051C19.0108 23.5051 22 36.5 18.5 36.5C14.5949 36.5 12.5107 34.5051 12.0107 26.5051C11.6107 20.1051 22.5107 13.8385 28.0107 11.5051C27.6774 8.83846 29.0107 2.90511 37.0107 0.505113C45.0107 -1.89489 48.344 4.83848 49.0107 8.50516C51.6774 6.33849 57.4107 4.60516 59.0107 15.0052Z" fill="white"/>
<path d="M31.7538 64C31.0872 64.5 30.2538 66 32.2538 68C34.7538 70.5 34.7539 72.5 34.2539 73" stroke="white" stroke-width="2" stroke-linecap="round" stroke-linejoin="bevel"/>
<path d="M47.7538 64C47.0872 64.5 46.2538 66 48.2538 68C50.7538 70.5 50.7539 72.5 50.2539 73" stroke="white" stroke-width="2" stroke-linecap="round" stroke-linejoin="bevel"/>
<path d="M11.7538 63C11.0872 63.5 10.2538 65 12.2538 67C14.7538 69.5 14.7539 71.5 14.2539 72" stroke="white" stroke-width="2" stroke-linecap="round" stroke-linejoin="bevel"/>
<path d="M2.98563 78.085C2.81978 78.9016 3.19397 80.5763 6.01756 80.7415C9.54705 80.9481 10.8763 82.4425 10.835 83.1484" stroke="white" stroke-width="2" stroke-linecap="round" stroke-linejoin="bevel"/>
<path d="M18.7538 88C18.0872 88.5 17.2538 90 19.2538 92C21.7538 94.5 21.7539 96.5 21.2539 97" stroke="white" stroke-width="2" stroke-linecap="round" stroke-linejoin="bevel"/>
<path d="M32.7538 82C32.0872 82.5 31.2538 84 33.2538 86C35.7538 88.5 35.7539 90.5 35.2539 91" stroke="white" stroke-width="2" stroke-linecap="round" stroke-linejoin="bevel"/>
<path d="M70.7538 88C70.0872 88.5 69.2538 90 71.2538 92C73.7538 94.5 73.7539 96.5 73.2539 97" stroke="white" stroke-width="2" stroke-linecap="round" stroke-linejoin="bevel"/>
<path d="M43.7538 76C43.0872 76.5 42.2538 78 44.2538 80C46.7538 82.5 46.7539 84.5 46.2539 85" stroke="white" stroke-width="2" stroke-linecap="round" stroke-linejoin="bevel"/>
</svg>
